PathFileType	4	(X/Y/Z)	C:\Users\WrightLab\Desktop\Jo\P2_Trial30.trc
DataRate	CameraRate	NumFrames	NumMarkers	Units	OrigDataRate	OrigDataStartFrame	OrigNumFrames
100.00	100.00	       21	19	mm	100.00	518	       591
Frame#	Time	Headset_Front			Headset_Back			Headset_Left			Headset_Right			Left_Shoulder			Right_Shoulder			Sternum			C7			Left Elbow			Right Elbow			Left Wrist			Right Wrist			Left ASIS			Right ASIS			S2			Left Knee			Right Knee			Left Ankle			Right Ankle			
		X1	Y1	Z1	X2	Y2	Z2	X3	Y3	Z3	X4	Y4	Z4	X5	Y5	Z5	X6	Y6	Z6	X7	Y7	Z7	X8	Y8	Z8	X9	Y9	Z9	X10	Y10	Z10	X11	Y11	Z11	X12	Y12	Z12	X13	Y13	Z13	X14	Y14	Z14	X15	Y15	Z15	X16	Y16	Z16	X17	Y17	Z17	X18	Y18	Z18	X19	Y19	Z19	

518	5.170							-187.23058	1724.09424	2121.41040				-260.38687	1498.50415	2252.57690													-94.75704	992.78632	2135.51367																-370.77859	517.86548	2361.63037	-228.12259	578.14063	1914.09998	-472.65875	237.72128	2496.88989	-239.39496	141.71236	1907.97864	
519	5.180							-190.98839	1724.23193	2131.02563				-268.79907	1498.39648	2258.03955													-98.48799	993.08331	2145.61768																-378.69388	515.46228	2366.02881	-229.20003	579.52942	1915.84326	-479.85773	236.98903	2500.71875	-235.73764	142.37408	1907.36401	
520	5.190							-194.97070	1724.03882	2139.84424				-277.47119	1498.89392	2264.14819													-101.98173	993.77142	2155.98584																-386.66974	514.24658	2372.11865	-230.08513	579.58246	1921.71094	-486.69928	235.16637	2504.33691	-230.78981	142.40799	1910.14380	
521	5.200							-199.16737	1724.17310	2148.65479																			-105.44718	994.59357	2167.22119																-393.28430	512.60248	2376.17480	-230.46544	580.58398	1922.16479	-492.68283	233.00490	2507.52881	-227.35484	143.43251	1911.52747	
522	5.210							-203.44476	1724.60291	2157.11963																			-109.27506	995.29059	2178.25635																-399.28656	511.34149	2381.27344	-230.96455	581.17114	1925.94763	-497.59985	230.41580	2510.71729	-224.75313	144.94745	1911.52271	
523	5.220							-208.98341	1725.56250	2166.57813																			-112.83997	997.17206	2188.96216																-404.29059	512.09021	2386.20215	-231.59827	583.08453	1928.69543	-501.94226	226.88246	2513.97729	-220.63454	145.85931	1913.16663	
524	5.230							-214.07843	1726.58154	2174.43042																			-117.06989	999.08862	2200.57129																-407.90414	513.21576	2390.13232	-231.83919	584.78137	1930.67188	-504.49902	221.84650	2517.56982	-218.13531	148.34471	1913.65625	
525	5.240							-220.22966	1728.25903	2182.94019																			-119.18488	1000.62555	2209.83716																-411.24124	514.57434	2394.36279	-231.86154	587.01581	1934.07739	-505.62042	215.73376	2520.54468	-215.47295	150.59695	1916.33594	
526	5.250							-226.17130	1729.49438	2190.93652																			-125.81846	1000.76984	2219.18823																-413.53085	515.86774	2397.16016	-231.30917	589.00238	1938.06665	-504.73096	209.75360	2522.77344	-214.05420	152.75616	1916.70947	
527	5.260							-232.45789	1730.75928	2198.78613																			-129.93820	1002.80493	2228.41333																-415.71268	515.54639	2398.00293	-230.54338	593.13300	1939.09656	-502.83331	199.82391	2521.27051	-211.18793	155.83008	1920.13989	
528	5.270							-239.04265	1732.90540	2205.98364																			-133.66512	1004.70770	2238.72241																-416.62415	516.73315	2400.37720	-228.62575	597.15881	1939.96265	-500.04724	194.46700	2522.59814	-211.35292	159.60129	1920.74060	
529	5.280							-245.58943	1734.26831	2212.93237																			-137.03001	1006.66907	2248.55273																-418.68195	516.76630	2402.50073	-226.33574	600.16431	1945.33923	-497.05316	188.13478	2520.91455	-208.62592	161.99956	1923.68213	
530	5.290																												-140.82738	1008.88947	2258.54688																-420.65195	516.97791	2403.85913	-223.34523	605.06915	1949.30688	-493.74924	184.31956	2519.34473	-207.06781	165.43045	1929.45508	
531	5.300																												-143.55742	1010.34467	2267.83984																-423.57330	516.56152	2406.25806	-219.96574	608.19403	1955.98511	-490.15988	181.10129	2517.61646	-207.40465	170.04625	1929.10339	
532	5.310																												-146.76920	1012.45380	2277.14624																-426.31812	516.82196	2408.21582	-215.91170	610.94208	1961.64319	-486.57166	177.54147	2514.49243	-206.10004	174.01781	1931.42773	
533	5.320																												-149.22940	1014.13214	2286.29834																-429.38483	516.95801	2410.58521	-211.68451	614.86963	1964.49707	-483.24060	175.79491	2512.79224	-205.15221	177.16661	1934.57178	
534	5.330																												-152.07010	1016.38708	2295.06177																-432.40308	516.81006	2414.60791	-206.98634	618.43280	1970.42371	-479.66037	173.02289	2509.61279	-204.04895	180.40587	1937.51086	
535	5.340																												-154.35492	1018.44916	2304.51147																-435.45358	516.99420	2417.73120	-201.55466	619.60864	1979.44971	-476.68475	169.99501	2506.40503	-202.79012	182.67535	1938.68018	
536	5.350																												-156.61771	1020.34332	2312.62256																-438.47961	516.60858	2422.13892	-196.57999	622.03528	1985.78027	-473.37457	168.46086	2504.23779	-201.73586	186.56696	1941.27185	
537	5.360																												-158.80168	1022.25116	2321.46533																-441.82300	516.54645	2425.74683	-190.42053	625.36505	1990.01978	-470.12802	166.83784	2501.85400	-200.32605	189.40700	1942.44775	
538	5.370																												-161.07933	1023.62866	2330.37891																-444.49503	516.96704	2430.01392	-185.29346	627.03839	1999.42981	-467.04645	163.54135	2498.29736	-198.03770	190.23558	1947.91431	
